<?xml version="1.0" encoding="utf-8"?>
<!-- Generator: Adobe Illustrator 16.0.0, SVG Export Plug-In . SVG Version: 6.00 Build 0)  -->
<!DOCTYPE svg PUBLIC "-//W3C//DTD SVG 1.1//EN" "http://www.w3.org/Graphics/SVG/1.1/DTD/svg11.dtd">
<svg version="1.1" id="Layer_1" xmlns="http://www.w3.org/2000/svg" xmlns:xlink="http://www.w3.org/1999/xlink" x="0px" y="0px"
	 width="922px" height="272px" viewBox="0 0 922 272" enable-background="new 0 0 922 272" xml:space="preserve">
<polygon fill="#3167A8" points="833.916,130.301 308.188,163.844 342.911,39.179 868.637,39.179 "/>
<polygon fill="#E5243B" stroke="#DD1367" stroke-miterlimit="10" points="678.082,231.953 396.087,231.953 406.208,140.831 
	701.5,140.831 "/>
<g>
	<defs>
		<polyline id="SVGID_1_" points="922,272 0,272 0,0 922,0 		"/>
	</defs>
	<clipPath id="SVGID_2_">
		<use xlink:href="#SVGID_1_"  overflow="visible"/>
	</clipPath>
	<path clip-path="url(#SVGID_2_)" fill="#FFFFFF" d="M368.284,69.813"/>
	<path clip-path="url(#SVGID_2_)" fill="#3167A8" d="M368.284,69.813"/>
	<path clip-path="url(#SVGID_2_)" fill="#E5243B" d="M392.943,195.758h-8.808l-1.833,10.902h10.03l-2.357,12.032h-9.679
		l-2.267,13.26h-13.084l2.27-13.26h-7.939l-2.266,13.26h-13.171l2.269-13.26h-8.374l2.355-12.032h8.111l1.832-10.902H340.7
		l2.352-12.038h8.987l2.355-14.125h13.17l-2.356,14.125h7.849l2.354-14.125h13.259l-2.53,14.125h9.157L392.943,195.758z
		 M371.138,195.758h-7.936l-1.919,10.902h7.936C369.974,202.007,370.614,198.376,371.138,195.758"/>
</g>
<g>
	<path fill="#FFFFFF" stroke="#DD1367" d="M427.091,209.022v-44.736h9.896v35.84h18.903v8.896H427.091z"/>
	<path fill="#FFFFFF" stroke="#DD1367" d="M496.297,191.806c0,4.992-1.713,9.194-5.139,12.607c-3.426,3.414-7.729,5.12-12.908,5.12
		c-5.182,0-9.484-1.706-12.908-5.12c-3.426-3.413-5.139-7.615-5.139-12.607s1.713-9.205,5.139-12.641
		c3.424-3.434,7.727-5.151,12.908-5.151c5.18,0,9.482,1.718,12.908,5.151C494.584,182.601,496.297,186.814,496.297,191.806z
		 M469.781,191.806c0,2.815,0.793,5.109,2.379,6.88s3.615,2.656,6.09,2.656s4.504-0.886,6.09-2.656s2.379-4.064,2.379-6.88
		c0-2.816-0.793-5.12-2.379-6.912s-3.615-2.688-6.09-2.688s-4.504,0.896-6.09,2.688S469.781,188.99,469.781,191.806z"/>
	<path fill="#FFFFFF" stroke="#DD1367" d="M512.534,209.022l-13.511-34.496h9.896l8.5,21.696l8.5-21.696h9.896l-13.511,34.496
		H512.534z"/>
	<path fill="#FFFFFF" stroke="#DD1367" d="M570.068,204.03c-3.849,3.67-8.363,5.504-13.543,5.504c-5.181,0-9.462-1.609-12.845-4.832
		c-3.384-3.221-5.075-7.541-5.075-12.96c0-5.418,1.723-9.728,5.17-12.928c3.446-3.2,7.517-4.8,12.211-4.8s8.68,1.43,11.957,4.288
		s4.916,6.784,4.916,11.775v5.12h-24.865c0.295,1.878,1.269,3.414,2.918,4.608s3.51,1.792,5.582,1.792c3.34,0,6.09-1.13,8.246-3.393
		L570.068,204.03z M560.935,183.614c-1.312-1.108-2.908-1.664-4.789-1.664c-1.883,0-3.606,0.576-5.17,1.729
		c-1.565,1.151-2.475,2.71-2.728,4.672h14.97C563.006,186.302,562.244,184.724,560.935,183.614z"/>
	<path fill="#FFFFFF" stroke="#DD1367" d="M579.965,172.798v-8.513h27.149v6.912l-9.071,10.433c3.553,0.598,6.301,2.102,8.246,4.512
		c1.945,2.411,2.918,5.195,2.918,8.352c0,4.694-1.575,8.374-4.726,11.04c-3.15,2.667-7.179,4-12.084,4
		c-4.906,0-9.875-1.749-14.907-5.248l4.061-7.936c4.187,2.987,7.929,4.479,11.228,4.479c1.987,0,3.625-0.489,4.916-1.472
		c1.289-0.98,1.935-2.4,1.935-4.256c0-1.856-0.74-3.328-2.22-4.416c-1.481-1.088-3.532-1.632-6.153-1.632
		c-1.396,0-3.362,0.406-5.899,1.216v-7.36l8.5-10.111H579.965z"/>
	<path fill="#FFFFFF" stroke="#DD1367" d="M634.58,209.534c-6.133,0-10.721-2.101-13.766-6.304
		c-3.045-4.202-4.566-9.813-4.566-16.832c0-7.018,1.521-12.629,4.566-16.832c3.045-4.202,7.633-6.304,13.766-6.304
		c6.131,0,10.72,2.102,13.765,6.304c3.045,4.203,4.567,9.814,4.567,16.832c0,7.019-1.522,12.63-4.567,16.832
		C645.3,207.433,640.711,209.534,634.58,209.534z M628.046,175.614c-1.396,2.731-2.093,6.336-2.093,10.816
		c0,4.479,0.697,8.086,2.093,10.815c1.396,2.731,3.573,4.097,6.534,4.097c2.959,0,5.138-1.365,6.533-4.097
		c1.396-2.729,2.094-6.336,2.094-10.815c0-4.48-0.698-8.085-2.094-10.816c-1.396-2.729-3.574-4.096-6.533-4.096
		C631.619,171.518,629.441,172.884,628.046,175.614z"/>
</g>
<g>
	<path fill="#3167A8" d="M245.782,196.474c-6.909,1.847-14.287,2.447-20.997,4.73c11.363-9.741,10.716-24.832,18.304-36.31
		c2.417-3.253,4.409-6.657,7.231-9.744c-4.619,9.259-2.609,21.267-7.914,30.247c-2.041,3.569-4.96,7.027-8.187,9.835
		c1.055-0.04,1.98-0.954,2.904-1.562c8.608-8.596,19.862-10.994,29.171-17.978c3.728-2.973,7.151-6.865,8.785-11.083
		C273.316,178.865,259.143,192.225,245.782,196.474"/>
	<path fill="#3167A8" d="M276.8,138.767c-4.215,5.988-9.308,11.563-13.198,17.653c0.436-4.815,1.004-10.748-0.877-15.321
		c-3.26-9.835-6.112-19.823-7.036-30.624l0.129-4.124c2.447,11.026,13.28,18.605,12.599,30.979c0.245,2.995-0.681,5.536-1.247,8.179
		l0.194,0.191l0.486-0.549c1.604-6.062,2.416-12.445,4.913-18.102c3.552-8.15,7.978-16.369,6.178-26.205
		C284.339,112.439,282.702,127.934,276.8,138.767"/>
	<path fill="#3167A8" d="M270.154,76.288c7.102,9.624,8.656,24.964,3.485,36.006c-1.931,4.679-3.291,9.665-4.055,14.846
		c-0.356-0.894-0.434-2.093-0.763-3.091c-2.82-10.807-13.051-18.509-17.25-28.702c-1.331-3.33-2.466-6.775-3.098-10.39
		c4.491,8.31,15.566,12.599,18.581,21.751c1.233,2.317,1.168,5.212,1.931,7.702c0.165,0,0.323-0.12,0.323-0.286
		c-1.33-9.427-0.922-19.301,0.358-28.615c-0.082-5.044-0.568-9.942-3.372-13.841C268.092,72.712,268.905,74.726,270.154,76.288"/>
	<path fill="#3167A8" d="M265.143,74.439c1.864,8.434-0.86,16.653,0.858,25.166l-0.065,0.073
		c-4.588-9.023-14.333-13.279-21.031-20.506c-3.892-4.285-5.577-9.508-6.55-15.039c3.844,9.262,14.205,11.305,20.156,19.103
		c1.993,1.8,2.641,4.291,3.924,6.331l0.21-0.202c-3.419-7.304-4.571-15.524-6.955-23.315c-1.201-3.377-3.57-6.692-6.747-8.82
		C256.743,58.823,263.521,66.983,265.143,74.439"/>
	<path fill="#3167A8" d="M244.257,55.095c5.887,5.265,8.545,12.081,10.264,19.142l0.975,2.246
		c-8.547-6.148-16.298-14.395-21.745-23.115l-6.665-6.735C232.938,49.111,239.248,50.593,244.257,55.095"/>
	<path fill="#3167A8" d="M109.413,47.749c-5.901,5.173-9.997,11.716-14.373,17.821c-3.925,4.857-8.945,8.067-13.394,12.243
		c2.398-4.978,2.487-10.929,5.893-15.501C92.389,53.854,101.377,50.88,109.413,47.749"/>
	<path fill="#3167A8" d="M77.137,65.765c2.869-3.567,6.51-6.047,10.604-7.094c-7.953,5.465-7.435,15.251-9.957,23.391
		c-0.8,3.007-2.195,5.782-2.893,8.869l0.202,0.162c1.322-3.495,3.65-6.787,6.552-9.632c5.652-5.212,14.001-8.464,16.767-16.175
		c-0.123,10.719-9.065,19.145-17.619,25.166c-3.526,3.098-6.932,6.623-8.871,10.599c-0.192-2.702,0.401-5.418,0.204-8.313
		C71.202,83.382,70.52,72.704,77.137,65.765"/>
	<path fill="#3167A8" d="M61.05,97.757c-0.242-9.476,3.69-17.222,9.237-24.282c0.162-0.08,0.275-0.243,0.486-0.202
		c-6.106,9.273-1.054,20.959-1.337,31.506l-0.804,10.798c0.122,0.072,0.122,0.4,0.406,0.276c0.357-1.2,0.437-2.49,0.681-3.731
		c1.435-8.709,8.999-14.884,15.605-20.91c1.413-1.571,2.662-3.167,3.382-5.018c-0.535,4.341-1.898,8.711-3.696,12.719
		c-5.14,10.033-14.644,18.261-16.378,29.742C67.792,117.651,60.298,109.424,61.05,97.757"/>
	<path fill="#3167A8" d="M56.43,111.24c0.681-2.967,1.208-6.034,2.497-8.758c-2.448,12.535,5.983,21.567,8.748,32.43
		c1.16,4.064,1.444,8.436,3.099,12.242c0.153,0.082,0.283-0.082,0.381-0.205c-4.118-11.542,1.824-22.261,7.797-31.3
		c1.452-2.449,2.287-5.173,3.009-7.986c0.64,5.225-0.68,11.24-1.443,16.664c-1.451,6.896-3.614,13.44-5.504,20.138
		c-1.242,4.184-0.917,8.902-0.276,13.285l-0.6-0.482c-4.378-8.068-13.045-14.37-15.623-23.19
		C56.399,127.051,54.987,118.903,56.43,111.24"/>
	<path fill="#3167A8" d="M56.033,135.716c0.965,13.29,15.251,20.307,21.876,31.305c1.563,2.242,2.926,4.741,5.017,6.625
		c-0.326-1.414-1.645-2.606-2.132-4.054c-2.319-4.616-3.161-10.116-2.601-15.691c0.638-6.786,3.484-13.087,2.399-20.22
		c5.821,12.549,4.052,28.206,7.303,41.804c0.853,2.974,2.572,5.621,3.699,8.47c-11.953-8.146-28.255-15.889-33.558-30.815
		C55.798,147.998,55.547,141.628,56.033,135.716"/>
	<path fill="#3167A8" d="M63.177,166.224c6.663,15.08,23.356,16.326,34.554,25.514c2.058,1.816,4.215,3.371,6.542,4.459l0.122-0.121
		c-2.57-2.326-5.545-4.971-7.346-7.985c-6.552-9.103-4.247-21.866-9.156-31.67c4.462,5.345,8.517,10.883,11.21,16.938
		c4.003,9.877,5.534,21.038,14.802,28.504c-10.03-3.297-21.777-2.37-30.632-8.551C73.609,187.369,64.984,177.299,63.177,166.224"/>
	<path fill="#3167A8" d="M80.307,194.355c10.685,12.153,28.149,8.102,42.387,11.281c2.007,0.277,3.85,1.074,5.982,0.753
		c-1.693-1.076-4.053-0.962-5.901-1.929c-11.165-3.925-12.801-16.007-18.858-24.154c7.743,5.145,14.243,12.073,21.387,18.785
		c5.131,4.5,11.31,6.574,17.82,7.899c-1.566,0.563-3.616,0.41-5.295,0.849c-11.691,2.881-24.687,7.581-37.083,3.374
		C92.679,208.672,84.362,202.295,80.307,194.355"/>
	<path fill="#3167A8" d="M225.366,222.686c-12.046,4.497-24.615-0.203-34.019-7.34c-3.81-2.415-7.165-5.9-12.097-5.594
		c-1.784-0.032-3.501,0.05-5.027,0.485c9.146,4.259,17.627,10.119,25.394,17.623c-1.313,1.488-2.998,2.888-4.603,4.171
		c-7.477-8.055-15.764-15.811-25.038-20.345c-1.816,0.245-3.542,1.327-5.181,2.212c-7.549,4.772-15.014,10.909-20.625,18.427
		l-4.822-3.982c7.7-7.781,16.212-13.847,25.53-18.178c-9.154-2.898-15.13,4.77-22.078,8.672c-8.1,5.652-19.742,8.306-29.528,4.408
		c-5.262-1.995-10.361-4.938-14.169-9.714c7.7,5.306,19.174,5.862,27.928,2.421c11.749-5.104,23.958-11.567,38.13-8.479
		c2.203,0.042,4.361,2.246,6.443,0.365c10.533-2.729,22.451-0.849,31.517,3.964l9.339,3.737c8.691,3.218,19.913,2.327,27.354-2.962
		C235.989,217.341,230.767,220.753,225.366,222.686"/>
	<path fill="#3167A8" d="M238.273,210.241c-13.522,5.106-27.127-1.162-40.083-3.25l-2.496-0.318v-0.083
		c6.193-1.397,12.209-3.25,17.138-7.7c7.263-6.979,13.734-14.163,21.795-19.668c-5.986,7.668-6.619,18.585-16.493,23.521
		c-2.449,1.596-5.529,1.881-8.059,3.086c3.602,0.086,6.892-1.205,10.46-1.563c13.246-2.084,28.407,0.048,37.698-11.238
		C254.782,200.889,246.138,207.474,238.273,210.241"/>
	<path fill="#3167A8" d="M262.839,172.202c-5.333,3.495-10.75,6.736-15.89,10.705v-0.485c7.861-13.069,4.02-31.012,8.869-45.384
		l1.799-4.817c-1.005,8.959,2.886,16.54,2.612,25.532c-0.278,5.421-2.044,10.239-4.898,14.57h0.487
		c3.844-5.05,6.859-10.436,11.352-15.25c6.988-6.739,14.089-13.647,15.015-22.995C284.551,149.687,275.795,163.36,262.839,172.202"
		/>
	<path fill="#3167A8" d="M241.452,85.717c-13.166-28.011-42.064-45.785-72.328-45.84c-13.24,0.251-25.401,3.178-36.515,8.677
		c-19.791,9.435-35.957,29.931-41.34,50.25c-8.862,34.189,3.13,68.823,32.469,88.922c21.104,15.137,54.749,18.03,78.439,6.43
		c21-8.839,39.082-30.541,44.577-52.02C252.169,123.96,249.785,101.804,241.452,85.717 M245.231,114.044
		c0.193,1.369-0.13,3.018,0.628,4.135l-11.558,0.195c-0.277,0.209-0.601,0.364-0.957,0.364l0.325-0.479
		c-0.243-9.064-2.61-17.209-6.095-24.922c-0.132-3.455-3.474-5.781-4.899-8.782c-2.58-1.775-3.343-4.906-6.276-6.467
		c-0.55-0.602-0.796-1.606-1.639-1.801l1.362-0.283c2.774-2.847,5.791-5.611,7.978-8.586
		C236.085,80.9,243.705,96.192,245.231,114.044 M212.556,157.473c-1.004-0.96-1.035-2.851-2.806-2.81
		c-0.599-0.082-0.861,0.487-0.861,0.965c-0.03,0.274,0.083,0.598-0.109,0.795l-3.649-3.201c1.72-0.895,2.999-3.213,4.326-4.9
		c3.375-4.701,5.337-9.955,7.041-15.328c0.55,0.445,1.282,0.486,1.831,0.118c0.535-0.438,0.648-1.287,0.292-1.847l-1.348-1.441
		c0.178-2.41,0.83-4.776,0.569-7.235l0.892,0.287c3.73-0.035,7.541,0.199,11.156-0.155l-0.567,0.64
		c-0.908,14.486-5.967,27.567-16.086,38.243C213.677,160.2,212.344,159.002,212.556,157.473 M203.119,169.03
		c-2.091-1.925,1.297-3.535,1.93-5.308c-0.356-1.875-2.449-2.922-4.054-3.449c-0.761-0.429-0.505-1.402-0.567-2.035
		c0.731-0.735,1.461-1.329,1.815-2.291l0.278,0.759l4.927,5.098c0,1.17,0.209,2.165,1.332,2.694c0.548,0.232,1.165-0.244,1.65-0.088
		h-0.273c-2.14,2.332-4.752,4.092-7.15,5.991l-0.569,0.754C202.177,170.36,203.8,169.99,203.119,169.03 M180.695,106.831
		c-0.651,0.243-1.33,0.68-2.045,0.355c-0.697-0.721-1.572-1.682-2.69-1.809c-0.764,0.205-1.299,1.168-2.208,0.65
		c1.444-1.573,4.006-1.857,5.095-4.021c0.307-1.038,0.599-2.124,0.486-3.201c-0.406-0.488-1.004-0.923-1.541-0.488
		c-0.793,1.33-2.628,1.608-3.487,3.017l-2.885-0.975c-0.487-2.638,0.183-6.014-0.578-8.302c1.532,0.561,3.22,0.599,4.825,0.967
		c4.103,1.045,7.833,2.966,11.449,5.211c-0.844,0.284-1.735,1.288-2.418,1.928c-0.034,0.725,0.764,0.522,1.087,0.96l0.762-0.278
		C185.315,103.975,181.135,103.489,180.695,106.831 M184.05,140.061c-0.063,1.444-2.123,1.403-3.081,2.403
		c-0.551-0.205-0.13-0.768,0-1.08C181.927,140.623,182.654,139.852,184.05,140.061 M206.77,101.608
		c1.327,0.284,2.12,1.848,3.47,2.131c1.182,1.842,1.636,3.967,2.221,6.056c-1.071,1.208-1.153,3.891-3.488,3.446
		c-0.551-1.278,1.056-2.035,0.683-3.242c0.42-0.326,1.053-0.478,1.184-1.086c-0.1-1.207-1.623-0.967-1.867-2.206
		c-0.47-0.681-1.279-0.607-1.913-0.844c-1.539-0.722-2.966,3.082-3.372,0.072c0.486-0.396,0.762-0.995,0.406-1.523
		c-1.331-0.721-1.445-2.56-2.904-3.29c-1.962,0.048-3.76-0.836-5.69-0.398c-1.235-0.286-2.693-1.119-3.649,0.201
		c-0.082,1.009-0.617,1.842-0.762,2.814c-0.453-0.25-0.844-0.691-1.084-1.168c3.535-3.94,7.568-7.913,11.268-11.755l0.209-0.487
		c1.848,2.288,4.007,4.574,5.37,7.144C207.173,98.999,204.205,100.603,206.77,101.608 M213.788,122.875
		c-0.679,2.172-0.599,4.659-1.15,6.864c-0.115,0.368-0.115,0.796-0.376,1.17c-0.678-1.365-1.23-3.179-2.805-3.984
		c-1.327-0.712-0.485-2.52-1.717-3.37l-1.247-1.241C208.615,123.239,211.389,123.004,213.788,122.875 M197.056,88.807
		c-2.109,2.407-4.848,4.573-6.651,7.101l-0.29-0.842c-5.253-4.288-11.352-6.423-18.024-7.337l-1.035,0.186l0.078-10.864
		l-0.406-0.894c4.436,0.692,8.864,1.292,12.933,2.734c5.206,1.846,10.019,4.661,14.446,8.343l0.975,0.403L197.056,88.807z
		 M186.062,148.242c3.537,0.325,6.859,1.08,10.034,2.281c0.797,0,1.687-0.074,2.207-0.678c-0.196-1.326,1.411-1.918,1.249-3.25
		c0.682-1.117,0.194-2.688,1.152-3.656c0.128-1.404-0.066-2.969-0.958-4.045c-0.875-0.566-1.67,0.154-2.529,0.273
		c-0.956,0.727-0.599,2.855-2.27,2.408c-0.405,0.561-1.184,0.561-1.737,0.41c-0.128-0.21-0.404-0.248-0.322-0.48
		c1.2-0.618,3.342-0.204,3.488-2.133c0.891-0.772,2.251-0.438,3.093-1.359c0.6-0.976,0.877-1.812,1.72-2.703
		c0.083-0.399,0.245-0.79,0.212-1.233c0.243,0.549,0.243,1.329,0.955,1.641c0.925,0.283,1.331-0.483,1.737-1.092
		c-0.047-0.314,0.193-0.79,0.552-0.477c1.004,0.806,2.414,0.113,3.582,0.213c0.989-0.326,2.078-0.526,3.162-0.57
		c-0.959,4.421-3.207,8.547-5.869,12.407c-0.989,1.233-1.881,2.561-2.999,3.769c-0.344-0.924-0.327-2.17-1.12-3.02l-0.487,0.123
		c-0.648,1.282-1.93,2.372-1.767,3.855c-0.957,1.529-3.372,0.242-4.816,1.045c-1.719,0.525-2.645-1.16-4.023-1.523
		c-1.507-0.645-3.275-0.683-4.716-1.445C185.542,148.648,185.753,148.354,186.062,148.242 M178.552,44.78
		c16.072,2.208,30.47,8.587,42.598,20.148l-1.378,0.554c-2.205,2.374-4.767,4.304-6.063,7.037c-0.147-0.763-1.28-1.29-1.639-2.012
		c-0.243-2.205-2.351-4.297-4.248-5.423c-1.573-0.286-1.931-2.644-3.858-1.923c-1.608-1.36-3.618-0.358-5.177,0.398v0.204
		c-7.617-4.337-16.133-7.023-25.325-7.705c-0.455,0-0.681,0.357-1.161,0.279c0.48-0.318,0.231-1.291,0.2-1.835
		c-0.255-0.413-0.726-0.891-1.285-0.576c-0.203,0.287-0.374,0.608-0.374,0.965c0.253-3.566,0.374-7.903-0.114-11.072
		C173.169,44.579,175.992,44.335,178.552,44.78 M175.473,60.875c7.036,0.842,13.247,2.764,19.474,5.579
		c0.91,1.402,2.724,2.081,2.952,3.851c-0.909,2.441,3.26,2.408,1.377,4.906c-0.129,0.793,0.552,1.231,0.828,1.839
		c0.242,0.679-0.114,1.72,0.695,2.124c1.444,0.315,2.045-1.607,3.487-1.086c1.882,1.363,2.287,3.607,2.287,5.701
		c0.245,1.319,1.361,2.212,2.53,2.692c2.368-0.723,1.234,1.927,2.887,2.607c1.847,0.228,2.77,2.605,4.814,2.409
		c1.817,1.363,2.805,3.365,4.429,4.896c-0.05,0.358,0.144,0.681,0.47,0.805c0.972,0.234,1.571-0.447,2.397-0.478
		c3.098,6.328,4.623,13.352,5.223,20.777l0.372,0.762c-3.891-0.038-7.782,0.043-11.772,0.285c-0.113-2.295,0.049-4.693-1.233-6.543
		c0.649-1.208,0.761-2.773,0.68-4.136c-0.239-0.598-0.776-0.073-1.037,0c-1.281,1.248-1.458,2.969-2.121,4.428
		c-1.103,1.558-1.267,3.914-0.617,5.693l0.485,0.486l-4.49-0.098c1.069-0.682-0.924-1.994,0.16-3.089l2.041-0.4
		c0.638-1.479,2.24-2.57,2.209-4.327c0.875-1.08,1.685-2.481,1.052-3.942c-0.972-2.204,1.638-4.449-0.371-6.54
		c0.194-0.591-0.243-1.476-0.972-1.445c-0.634-0.193-1.365,0-1.365-0.875c0.374-0.558,1.299-1.128,1.088-2.003
		c-0.487-0.607-1.249-0.078-1.848-0.121c-0.163-0.974,1.653-2.011,0.081-2.892c-1.089-0.197-1.688,1.164-2.776,0.686
		c-0.468-0.403-0.822-1.087-0.387-1.651l-2.416-2.969c-0.243-0.284-0.925,0.155-0.955-0.398c0.16-2.366-2.723-3.695-2.888-6.058
		c-0.89-0.807-0.178-2.296-1.329-2.976c-0.648-0.484-1.362-1.033-2.236-0.678c-1.007-1.451-2.175-2.855-3.551-4.137
		c-0.391-0.12-0.681,0.123-0.863,0.366c0.182,1.119,1.511,1.76,1.43,3c-0.195-0.039-0.359,0-0.471,0.163
		c0.161,1.169,1.087,2.09,1.833,2.896c-6.293-4.858-13.719-7.389-21.583-8.667c-1.524-0.044-3.099-0.683-4.631-0.164
		c0.374-3.488,0.132-7.47,0.214-11.207l-0.409-0.76C172.14,60.987,173.752,60.631,175.473,60.875 M168.728,107.104l0.673,0.366
		c-0.835,0.04-1.791-0.489-2.513,0.113c-0.494,0.363-0.171,1.007,0,1.441c1.436,0.567,1.769,2.939,3.682,2.014
		c0.809,0.168,1.805,0.326,2.083,1.255c1.168,0.431,1.328,2.483,2.901,2.045c-0.08,0.752-0.323,2.081,0.601,2.673
		c-0.244,0.681-1.119,0.975-1.086,1.856c-0.195,0.238-0.407,0.642-0.147,0.966c1.475,0.154,1.395,1.842,2.078,2.755
		c-0.326,1.176,0.079,2.368,1.083,3.016c-0.16,1.371-0.762,2.531-1.36,3.739c-1.558,0.764-4.134-1.169-4.703,1.641
		c-0.885,0.969-0.131,3.093-1.858,3.165c-3.274,0.253-6.33-0.468-8.861-2.407c1.646-0.833,4.46,0.326,5.01-2.123
		c0.439-0.355,0.609-1.007,0.406-1.523c0.763-0.764,1.046-1.769,1.442-2.684c-0.59-0.611-0.323-0.934-0.187-1.648
		c-1.661-1.686-3.888-0.802-5.981-0.76c-1.257,0.711-0.056,2.083-0.893,2.957c-1.605,0.202-1.645,1.769-2.771,2.691
		c-0.641-0.283-1.121-1.156-1.081-1.8h0.213c-0.09,0.316,0.114,0.601,0.398,0.682c1.514,0.234,1.038-1.491,1.514-2.253
		c0.252-0.955,2.49-2.277,0.692-2.967c-0.09-0.398,0.234-0.924-0.285-1.17c-0.558,0.246-1.491,0.246-1.567,1.089
		c0.285,0.729,0,1.452-0.638,1.928h-0.327c0.123-0.476-0.241-0.801-0.567-0.971c-0.907,0.049-1.676,0.722-2.601,0.495
		c-1.29,0.275-2.73,0.517-4.054,0.559c-0.155-0.761,1.046-0.529,1.291-1.24c-0.212-1.208,0.59-1.931,1.116-2.815
		c0.327-0.312,0.926-0.202,1.298-0.079c0.31,0.316,0.634,0.6,1.109,0.483l0.407-0.688c1.208,0.73,0.527,4.176,2.879,2.683
		c0.372-1.473,0.048-3.24,0.689-4.602c-0.526-1.297,0.849-1.809,1.25-2.701c1.238,0.128,1.118-1.272,1.644-1.922
		c1.882-0.559,3.892-1.004,5.091-3.006c-0.487-1.005-0.162-2.449-0.955-3.253C166.676,106.831,168.077,106.392,168.728,107.104
		 M166.887,181.553l-1.127-0.768c-14.932-0.806-27.704-6.909-38.852-16.656c1.8-0.188,2.482,2.209,4.452,1.609
		c2.165-0.244,3.848-1.966,6.144-1.609c1.119,0.042,2.531,0,3.213-1.085c0.356-1.197-0.933-1.807-1.16-2.771
		c7.58,5.666,16.124,9.234,25.878,9.728l0.958-0.411v10.597L166.887,181.553z M124.82,123.686l-0.613-0.965
		c1.218,0.874,2.458,0.608,3.868,0.354c-1.969,0.641-1.248,3.06-2.002,4.543c-0.138,0.721,0.957,0.925,0.835,1.647
		c-0.973,0.475-1.094,1.522-1.523,2.277C125.936,128.858,124.898,126.328,124.82,123.686 M112.664,137.534
		c-1.086,0.114-0.803,1.318-1.255,1.911c0.096-2.805-1.152-5.528-1.525-8.38l-0.877-7.379l-0.488-0.681
		c3.535,0.517,7.429,0.186,11.158,0.282l0.884-0.411c-0.325,1.766-0.39,4.334,0.883,5.902c-0.438-0.482-1.08-1.892-2.123-1.852
		c-2.053,0.125-2.206,2.814-4.257,2.898c-1.688,1.4-1.923,3.373-2.287,5.297C113.5,135.877,112.216,136.64,112.664,137.534
		 M120.854,118.95l-1.047-0.406l-11.001,0.194c1.005-12.274,4.383-23.551,11.481-33.305l4.336-5.495l0.08-0.764
		c2.572,3.017,5.416,5.812,8.466,8.462c-7.913,8.516-11.917,18.714-12.804,30.145C120.536,118.179,120.406,118.657,120.854,118.95
		 M166.393,72.153c-2.076-0.447-4.209,0.269-6.331,0.478c-8.96,1.84-17.261,5.66-24.088,12.203l-0.276-0.763
		c-2.685-2.491-5.132-5.618-8.101-7.514c2.563-1.519,4.851-3.755,7.34-5.491c9.305-6.268,19.732-9.792,31.373-10.481
		C165.913,64.361,166.238,68.342,166.393,72.153 M148.417,132.708c0.033,0.404,0.519,0.772,0.966,0.489
		c0.439-0.608-0.966-1.655,0.072-2.012c0.649,0.721,0.327,1.927,0.689,2.764c0.325,0.454,0.439,0.963,0.365,1.572
		c-1.096,1.323-2.611,2.493-3.372,3.924c-0.723-1.797-2.334-3.243-3.057-5.083c-1.152-2.1-1.759-4.459-2.886-6.544
		c0.957,1.2,3.533-0.162,3.533,2.127c0.156,0.12,0.408,0.072,0.594,0.072c0.326-0.358,0.365-0.398,0.778-0.194
		c0.194,0.396,1.152,0.599,0.398,1.086C146.772,131.742,147.495,132.546,148.417,132.708 M160.334,164.012l1.924,0.883
		c-6.973-1.722-14.474-4.133-20.506-9.151c-1.035-0.593-1.717-1.966-2.973-2.048c2.819-2.272,5.633-5.3,7.993-8.187
		c1.048,1.924,3.293,2.966,5.02,4.257c3.032,1.403,6.193,3.974,9.744,3.242c-1.102,0.413-2.116,1.022-3.001,1.979
		c-0.496,1.08-0.325,2.687-1.776,3.164C156.85,160.446,158.895,162.365,160.334,164.012 M134.74,149.845l-0.407-2.485
		c-2.283-2.052-1.573-5.584-1.927-8.192c-1.604-1.277-0.325-3.363-1.435-4.805c0.024-2.337-3.633-3.139-2.497-5.71
		c-0.447-0.638-0.997-1.484-0.477-2.281c0.711-0.846,2.275,0.087,2.762-1.161l0.315-2.136c0.853-0.486,2.045,0.611,2.493-0.566
		c0.809-2.002-2.963-4.45,0.281-5.497c1.089-0.115,2.578-0.356,3.01,0.975c0.251,1.523,0.646,3.158,0.07,4.734
		c1.058,0.397,0.091,1.328,0.091,2.004c-0.633,0.275-1.238,0.921-1.995,0.688c-0.324-0.528-0.893-1.452-1.663-1.364
		c-0.601,0.836,0.252,1.72,0.124,2.675c-0.195,0.568-0.042,1.212-0.398,1.646c-0.273-0.195-0.568-0.315-0.965-0.273
		c-0.689,0.354-0.235,1.086-0.072,1.523c0.71,0.446,1.24,1.127,2.081,1.167l0.406-0.486c-0.089-1.282,0.512-2.286,0.552-3.577
		l1.169,0.609c1.078,4.977,3.33,9.511,6.185,13.767l1.524,1.516c-3.658,3.18-7.223,6.952-10.312,10.524v0.083
		c-0.042-0.165-0.17-0.807-0.642-0.57C132.688,151.128,135.208,151.564,134.74,149.845 M140.309,102.371
		c-1.126,0.64-2.008,1.768-2.682,2.813c-0.973,0.6-2.205,0.559-3.025,1.647c0,0.437,0.536,0.998-0.065,1.32
		c-0.924,0.874-2.853-0.242-3.29,1.441c-0.173,1.486-1.93,2.328-1.809,3.975c-0.964,0.639-0.802,1.886-0.681,2.887
		c0.519,0.646-0.236,1.806,0.681,2.285c-1.563-0.194-3.624-0.436-5.017,0.212c0.76-1.808,0.525-4.065,0.964-5.983
		c1.486-8.303,5.261-15.607,10.791-22.24c2.771,2.723,5.74,5.901,8.87,8.271C142.767,99.085,142.718,102.45,140.309,102.371
		 M165.079,145.631c-0.576,0.925-0.13,2.296-0.407,3.372c-5.343-0.924-10.158-3.129-14.446-6.654c2.408-2.623,5.7-5.174,7.419-7.987
		c0.251,1.284,1.767,1.879,2.814,2.481c2.139,0.955,4.734,2.439,7.166,1.411c-0.203,0.153-0.357,0.382-0.552,0.513
		c0.689,0.678-0.519,1.408,0.291,2.047c0.162,0.527-0.526,0.438-0.567,0.853c0.407,0.72-0.121,1.995,1.038,2.241
		c0.292,0.396,0,1.003-0.471,1.041C166.554,144.794,165.478,144.755,165.079,145.631 M152.147,133.591
		c0.722-0.72,1.403-1.598,1.646-2.607l1.37,0.685c-1.247,0.073-1.929,1.324-2.895,2.012L152.147,133.591z M163.354,100.925
		c-0.244-0.567,0.447-1.166-0.203-1.531c-1.85,0.852-1.16,2.892-2.417,4.224c-0.202,1.046-1.566,0.52-2.198,1.078
		c-0.496-0.753-1.449-0.722-2.132-0.284c-0.956,0-1.118-1.962-2.129-0.956c-0.27,0.323-0.117,1.036-0.877,0.753
		c-0.163-0.266-0.449-0.315-0.64-0.47c-0.044-0.608,1.003-0.533,0.64-1.25c-0.722-1.288-2.295-1.086-3.253-2.051h-0.883
		c4.743-5.007,10.678-7.214,17.132-8.056c-0.083,2.883-0.31,6.136,0.606,8.74C165.995,99.881,164.593,101.445,163.354,100.925
		 M166.521,87.915c-2.092-0.471-4.061,0.494-6.062,0.689c-4.501,1.135-8.418,3.616-12.236,6.346
		c-0.202,0.316-0.403,0.596-0.609,0.878c-2.772-2.448-5.489-5.854-8.552-7.986c7.759-6.381,16.58-10.638,26.78-11.359l0.679-0.398
		C166.083,79.978,166.083,84.145,166.521,87.915 M123.061,59.513c12.721-9.146,27.044-14.65,43.178-15.291l-0.325,1.118l0.113,9.633
		l0.367,0.964c-15.657,0.722-29.284,6.583-41.008,17.263l-0.204,0.551c-2.692-2.886-5.698-6.22-8.86-8.538h-0.373
		C118.444,63.763,120.607,61.193,123.061,59.513 M93.198,111.53c2.052-16.581,9.104-31.108,20.544-43.837l0.276,1.086
		c2.741,2.693,5.465,5.54,8.074,7.988c-2.245,1.524-3.573,4.093-5.366,6.137c-7.2,10.192-11.286,21.588-12.057,34.393l0.293,1.57
		c-4.021-0.323-8.4-0.323-12.404,0C93.035,116.419,92.753,113.922,93.198,111.53 M102.472,158.435
		c-5.78-10.723-9.192-22.395-9.842-35.245l11.157,0.096l1.085-0.411c-0.161,0.608-0.079,1.369-0.12,2.25L104.669,125
		c-0.316,0.25,0.243,0.365,0.203,0.605c0.203,4.248,0.967,8.27,1.93,12.208l0.569,0.87c-0.853-0.755-1.169-1.68-1.816-2.481
		c-0.92,0.151-1.923,0.354-2.603,0.974c0.436,1.152-0.721,0.784-1.248,1.109c-0.162-0.271-0.479-0.6-0.797-0.751
		c-0.851,0.036-1.734,0.114-2.09,0.954c0.12,0.6-0.568,0.885-0.802,1.364c-0.253,1.814-0.847,4.165,0.478,5.657
		c0.038,1.328,0.68,2.529,1.644,3.365c0.407,0.088,0.608-0.227,0.885-0.355c1.078,0.803,1.645,2.775,3.253,2.408
		c0.477-0.238,0.321-0.723,0.477-1.082c0.85,0.844,1.249,2.57,2.813,2.403c0.387,0.403,0.599,1.118,1.24,1.173
		c1.686-0.452,1.079,1.922,2.335,2.602c0.958,0.603,1.482,2.053,2.878,1.365l0.487-0.601c0.454,0.315,0.089,1.123,0.485,1.562
		c0.68,1.294,2.041,2.207,3.367,2.565c1.166,1.338,2.373,2.899,3.735,3.858l-0.972,0.412l-7.979,8.257
		C109.493,168.501,105.32,163.722,102.472,158.435 M159.006,196.476c-16.125-2.197-30.249-9.178-42.773-20.021l8.267-8.308
		l0.122-0.488c11.441,11.048,25.287,16.579,40.934,17.657l1.241-0.315l-0.404,0.608v10.866l0.606,0.968
		C164.503,196.681,161.576,196.915,159.006,196.476 M168.728,151.013c-0.892,0.115-1.613,0.032-2.334-0.281
		c-0.367-0.043-0.237-0.439-0.367-0.682c1.178,0.041,1.736-1.361,2.984-1.159c0.722-0.649,0.841-1.737,1.832-2.103
		c-0.315-1.035,0.976-0.364,1.249-0.954c0.363-0.325,0.851-0.683,1.371-0.396c0.809,1.156,2.448,0.679,3.26,1.994
		c0.404,0.17,0.518-0.279,0.47-0.553v-0.496c1.295-0.113,1.93,1.727,3.291,0.496c0.324-0.285,0.259-0.892,0-1.168
		c-0.143-0.081-0.359-0.162-0.388-0.365c0.924-0.437,1.474,1.401,2.593,0.771c0.926-0.771,1.573-1.735,2.821-1.735l0.276,0.373
		c0.194,2.398-1.847,3.85-3.649,4.932c-1.167,0.484-3.289,0.322-3.209,2.205c-1.33,1.206-2.578-0.723-4.216-0.197
		c-0.762-0.4-0.05-1.523-1.086-1.727C171.94,150.689,169.928,149.085,168.728,151.013 M171.695,171.357
		c1.46,0.598,3.938-0.601,4.735,1.037c-0.438,0.935-1.169,1.814-0.877,2.894c0.601,1.491,1.478,3.456,3.374,3.577
		c0.47,0.633,1.117,0.792,1.768,1.038c-3.227,0.526-6.683,0.364-9.639,1.362c0.396-3.247,0-6.617,0-9.908l-0.611-0.882
		C171.013,170.554,171.288,171.042,171.695,171.357 M171.818,197.041l-0.762,0.48c0.283-4.098,0.283-8.513,0-12.591
		c2.017,0.68,4.14-0.1,6.264-0.1l6.149-1.08c3.03,0.609,5.202,5.534,8.575,2.542c1.166-1.403,3.212-1.291,3.94-3.229
		c1.962-0.713,2.449-2.713,3.844-3.996c1.331-3.779,5.577-4.338,8.189-6.939c1.896-1.696,4.378-3.098,5.513-5.311l0.179,0.967
		l8.479,8.063C207.854,188.854,191.17,196.197,171.818,197.041 M245.506,123.483c-0.765,18.776-7.752,34.99-20.025,49.001
		l-0.326,0.588c-2.528-2.766-5.901-6.371-8.951-8.777c1.848-1.251,3.258-3.414,4.735-5.182c7.621-10.466,12.08-22.271,12.73-35.63
		l-0.405-1.089l0.681,0.481l11.445-0.073l0.585-0.294L245.506,123.483z"/>
	<path fill="#3167A8" d="M204.645,60.472c-0.032,0.443,0.048,0.833,0.289,1.157c1.688,0.608,1.884,3.054,4.038,2.505
		c0.65-0.738-0.388-1.499-0.192-2.415c-0.278-0.844-1.009-1.209-1.8-1.453C206.135,61.076,205.405,59.546,204.645,60.472"/>
	<path fill="#3167A8" d="M172.587,53.652c2.123,2.731,5.822,1.199,8.464,0.681c1.931,0.803,3.778-0.156,5.221-1.364v-0.29
		c-1.363-1.912-3.939-2.204-6.257-2.398l-5.792,2.494c-0.471-0.208-1.395-0.459-1.721,0.194
		C172.247,53.173,172.502,53.459,172.587,53.652"/>
</g>
<g>
	<path fill="#FFFFFF" d="M360.486,77.608c-0.962,0.79-1.443,1.835-1.443,3.136c0,1.302,0.587,2.336,1.764,3.104
		c1.175,0.768,3.89,1.675,8.144,2.72c4.253,1.046,7.556,2.614,9.908,4.704c2.351,2.091,3.527,5.142,3.527,9.152
		c0,4.011-1.507,7.264-4.521,9.76s-6.979,3.744-11.895,3.744c-7.097,0-13.488-2.624-19.173-7.872l5.963-7.296
		c4.831,4.224,9.298,6.336,13.402,6.336c1.837,0,3.28-0.394,4.328-1.184c1.047-0.789,1.571-1.856,1.571-3.2
		c0-1.344-0.556-2.41-1.667-3.2c-1.112-0.789-3.313-1.589-6.604-2.4c-5.216-1.237-9.032-2.848-11.446-4.832
		c-2.416-1.984-3.623-5.098-3.623-9.344c0-4.245,1.528-7.52,4.585-9.824c3.056-2.304,6.871-3.456,11.446-3.456
		c2.992,0,5.984,0.512,8.977,1.536c2.992,1.024,5.6,2.475,7.823,4.352l-5.066,7.296c-3.89-2.944-7.909-4.416-12.055-4.416
		C362.763,76.424,361.448,76.819,360.486,77.608z"/>
	<path fill="#FFFFFF" d="M400.532,85.896v15.424c0,1.323,0.342,2.358,1.026,3.104c0.684,0.747,1.496,1.12,2.437,1.12
		c1.795,0,3.312-0.81,4.553-2.432l3.591,6.72c-2.993,2.731-6.146,4.096-9.458,4.096c-3.313,0-6.114-1.088-8.4-3.264
		c-2.287-2.176-3.431-5.141-3.431-8.896V85.896h-4.04v-6.912h4.04V68.681h9.683v10.304h8.336v6.912H400.532z"/>
	<path fill="#FFFFFF" d="M435.415,87.433c-2.865,0-5.002,1.014-6.413,3.04c-1.411,2.027-2.116,4.704-2.116,8.032v14.912h-9.619
		V78.984h9.619v4.544c1.24-1.408,2.79-2.602,4.649-3.584c1.859-0.981,3.751-1.493,5.675-1.536l0.064,9.024H435.415z"/>
	<path fill="#FFFFFF" d="M473.504,108.424c-3.89,3.67-8.454,5.504-13.69,5.504c-5.237,0-9.565-1.61-12.985-4.832
		c-3.421-3.221-5.13-7.541-5.13-12.96c0-5.418,1.742-9.728,5.227-12.928c3.483-3.2,7.599-4.8,12.344-4.8s8.774,1.43,12.088,4.288
		c3.312,2.859,4.97,6.784,4.97,11.776v5.12h-25.137c0.298,1.878,1.282,3.414,2.95,4.608c1.667,1.195,3.548,1.792,5.643,1.792
		c3.376,0,6.156-1.13,8.336-3.392L473.504,108.424z M464.271,88.008c-1.325-1.109-2.94-1.664-4.841-1.664
		c-1.903,0-3.646,0.576-5.227,1.728c-1.582,1.152-2.5,2.71-2.757,4.672h15.134C466.364,90.696,465.595,89.119,464.271,88.008z"/>
	<path fill="#FFFFFF" d="M513.133,108.424c-3.89,3.67-8.454,5.504-13.69,5.504c-5.237,0-9.565-1.61-12.985-4.832
		c-3.42-3.221-5.13-7.541-5.13-12.96c0-5.418,1.741-9.728,5.227-12.928c3.483-3.2,7.599-4.8,12.344-4.8s8.774,1.43,12.088,4.288
		c3.312,2.859,4.97,6.784,4.97,11.776v5.12h-25.138c0.299,1.878,1.283,3.414,2.95,4.608c1.667,1.195,3.548,1.792,5.643,1.792
		c3.377,0,6.156-1.13,8.337-3.392L513.133,108.424z M503.899,88.008c-1.326-1.109-2.939-1.664-4.842-1.664s-3.645,0.576-5.226,1.728
		c-1.582,1.152-2.501,2.71-2.758,4.672h15.134C505.993,90.696,505.224,89.119,503.899,88.008z"/>
	<path fill="#FFFFFF" d="M533.974,85.896v15.424c0,1.323,0.342,2.358,1.026,3.104c0.683,0.747,1.495,1.12,2.437,1.12
		c1.795,0,3.312-0.81,4.553-2.432l3.591,6.72c-2.993,2.731-6.146,4.096-9.458,4.096c-3.313,0-6.114-1.088-8.4-3.264
		c-2.288-2.176-3.431-5.141-3.431-8.896V85.896h-4.04v-6.912h4.04V68.681h9.683v10.304h8.336v6.912H533.974z"/>
	<path fill="#FFFFFF" d="M576.68,102.696c0,3.392-1.25,6.112-3.751,8.16s-5.676,3.072-9.522,3.072c-2.565,0-5.237-0.459-8.016-1.376
		c-2.78-0.917-5.28-2.272-7.503-4.064l4.232-6.016c3.591,2.774,7.416,4.16,11.479,4.16c1.239,0,2.222-0.245,2.949-0.736
		c0.727-0.49,1.09-1.141,1.09-1.952c0-0.81-0.503-1.557-1.507-2.24c-1.005-0.682-2.459-1.322-4.36-1.92
		c-1.902-0.597-3.356-1.109-4.36-1.536c-1.005-0.426-2.148-1.045-3.431-1.856c-2.608-1.621-3.912-4.021-3.912-7.2
		c0-3.178,1.283-5.77,3.848-7.776c2.565-2.005,5.878-3.008,9.939-3.008s8.122,1.366,12.184,4.096l-3.591,6.4
		c-2.992-2.048-5.975-3.072-8.945-3.072c-2.972,0-4.457,0.811-4.457,2.432c0,0.896,0.471,1.6,1.411,2.112
		c0.939,0.512,2.501,1.11,4.681,1.792c2.181,0.683,3.729,1.206,4.649,1.568c0.919,0.363,2.021,0.928,3.303,1.696
		C575.482,96.883,576.68,99.305,576.68,102.696z"/>
	<path fill="#FFFFFF" d="M612.46,77v2.304h8.336v6.912h-8.336v27.2h-9.683v-27.2h-4.04v-6.912h4.04v-2.112
		c0-3.754,1.143-6.73,3.431-8.928c2.286-2.197,5.13-3.296,8.528-3.296s6.486,1.28,9.266,3.84l-3.462,6.464
		c-1.411-1.621-2.973-2.432-4.682-2.432c-0.983,0-1.795,0.352-2.437,1.056S612.46,75.636,612.46,77z"/>
	<path fill="#FFFFFF" d="M660.426,96.201c0,4.992-1.731,9.195-5.194,12.608c-3.462,3.414-7.812,5.12-13.049,5.12
		c-5.237,0-9.587-1.706-13.05-5.12c-3.463-3.413-5.193-7.616-5.193-12.608c0-4.992,1.73-9.205,5.193-12.64
		c3.463-3.434,7.812-5.152,13.05-5.152c5.236,0,9.587,1.718,13.049,5.152C658.694,86.996,660.426,91.208,660.426,96.201z
		 M633.622,96.201c0,2.816,0.802,5.11,2.404,6.88c1.604,1.771,3.655,2.656,6.156,2.656s4.553-0.885,6.156-2.656
		c1.603-1.77,2.404-4.064,2.404-6.88c0-2.816-0.802-5.12-2.404-6.912c-1.604-1.792-3.655-2.688-6.156-2.688
		s-4.553,0.896-6.156,2.688C634.424,91.081,633.622,93.384,633.622,96.201z"/>
	<path fill="#FFFFFF" d="M685.69,87.433c-2.864,0-5.002,1.014-6.412,3.04c-1.411,2.027-2.116,4.704-2.116,8.032v14.912h-9.619
		V78.984h9.619v4.544c1.239-1.408,2.789-2.602,4.648-3.584c1.86-0.981,3.752-1.493,5.676-1.536l0.063,9.024H685.69z"/>
	<path fill="#FFFFFF" d="M711.789,113.417V68.681h10.004v35.84h19.108v8.896H711.789z"/>
	<path fill="#FFFFFF" d="M748.052,74.601c-1.09-1.088-1.635-2.421-1.635-4c0-1.578,0.545-2.912,1.635-4s2.426-1.632,4.008-1.632
		c1.581,0,2.918,0.544,4.008,1.632s1.635,2.422,1.635,4c0,1.579-0.545,2.912-1.635,4s-2.427,1.632-4.008,1.632
		C750.478,76.232,749.142,75.688,748.052,74.601z M756.869,113.417h-9.619V78.984h9.619V113.417z"/>
	<path fill="#FFFFFF" d="M777.452,77v2.304h8.336v6.912h-8.336v27.2h-9.683v-27.2h-4.04v-6.912h4.04v-2.112
		c0-3.754,1.143-6.73,3.431-8.928c2.286-2.197,5.13-3.296,8.528-3.296s6.486,1.28,9.266,3.84l-3.462,6.464
		c-1.411-1.621-2.973-2.432-4.682-2.432c-0.983,0-1.795,0.352-2.437,1.056S777.452,75.636,777.452,77z"/>
	<path fill="#FFFFFF" d="M821.633,108.424c-3.89,3.67-8.454,5.504-13.69,5.504c-5.237,0-9.565-1.61-12.985-4.832
		c-3.42-3.221-5.13-7.541-5.13-12.96c0-5.418,1.741-9.728,5.227-12.928c3.483-3.2,7.599-4.8,12.344-4.8s8.774,1.43,12.088,4.288
		c3.312,2.859,4.97,6.784,4.97,11.776v5.12h-25.138c0.299,1.878,1.283,3.414,2.95,4.608c1.667,1.195,3.548,1.792,5.643,1.792
		c3.377,0,6.156-1.13,8.337-3.392L821.633,108.424z M812.399,88.008c-1.326-1.109-2.939-1.664-4.842-1.664s-3.645,0.576-5.226,1.728
		c-1.582,1.152-2.501,2.71-2.758,4.672h15.134C814.493,90.696,813.724,89.119,812.399,88.008z"/>
</g>
</svg>
